<?xml version="1.0" standalone="no"?>
<!DOCTYPE svg PUBLIC "-//W3C//DTD SVG 20010904//EN"
 "http://www.w3.org/TR/2001/REC-SVG-20010904/DTD/svg10.dtd">
<svg version="1.0" xmlns="http://www.w3.org/2000/svg"
 width="192.000000pt" height="198.000000pt" viewBox="0 0 192.000000 198.000000"
 preserveAspectRatio="xMidYMid meet">

<g transform="translate(0.000000,198.000000) scale(0.100000,-0.100000)"
fill="#000000" stroke="none">
<path d="M160 1792 c0 -13 14 -22 58 -32 98 -25 92 26 92 -770 0 -796 6 -745
-92 -769 -45 -10 -58 -17 -58 -32 0 -18 14 -19 370 -19 363 0 370 0 370 20 0
15 -9 21 -41 26 -54 9 -88 39 -99 89 -14 61 -13 685 1 685 28 0 82 -85 244
-380 95 -174 175 -325 179 -337 10 -30 -15 -50 -74 -58 -40 -6 -50 -11 -50
-26 0 -18 12 -19 350 -19 401 0 387 -4 297 84 -44 43 -93 125 -315 524 -151
273 -259 478 -255 485 33 55 281 342 331 382 55 46 151 102 205 119 9 3 17 15
17 26 0 20 -5 20 -290 20 -277 0 -290 -1 -290 -19 0 -14 10 -20 38 -25 80 -12
142 -81 142 -156 0 -58 -52 -149 -162 -280 -160 -191 -244 -260 -351 -284
l-28 -7 3 323 c4 387 2 383 112 403 26 5 36 12 36 26 0 18 -14 19 -370 19
-349 0 -370 -1 -370 -18z"/>
</g>
</svg>
